<?xml version="1.0" standalone="no"?>
<!DOCTYPE svg PUBLIC "-//W3C//DTD SVG 20010904//EN"
 "http://www.w3.org/TR/2001/REC-SVG-20010904/DTD/svg10.dtd">
<svg version="1.0" xmlns="http://www.w3.org/2000/svg"
 width="800.000000pt" height="800.000000pt" viewBox="0 0 800.000000 800.000000"
 preserveAspectRatio="xMidYMid meet">

<g transform="translate(0.000000,800.000000) scale(0.100000,-0.100000)"
fill="#000000" stroke="none">
<path d="M3255 7861 c-75 -21 -165 -72 -211 -119 -43 -44 -43 -55 -1 -38 44
19 181 40 208 33 27 -7 109 40 179 102 l45 40 -80 0 c-45 0 -106 -8 -140 -18z"/>
<path d="M4520 7849 c86 -74 149 -109 194 -109 25 0 80 -7 123 -16 43 -9 89
-18 103 -21 21 -4 18 2 -24 42 -91 86 -221 135 -353 135 l-78 -1 35 -30z"/>
<path d="M2798 7797 c-52 -54 -123 -177 -132 -229 -6 -32 -4 -38 11 -37 13 0
33 32 72 115 30 62 59 114 65 114 5 0 6 3 3 6 -4 4 3 20 14 36 34 47 15 44
-33 -5z"/>
<path d="M5120 7832 c0 -7 20 -48 44 -90 24 -43 58 -108 75 -144 20 -41 39
-68 51 -71 11 -3 20 -2 20 2 0 17 -39 119 -61 160 -27 50 -128 162 -129 143z"/>
<path d="M2840 7668 c-30 -57 -56 -109 -58 -115 -2 -9 9 -13 32 -13 35 0 35 1
55 68 26 89 41 145 41 155 0 25 -22 -6 -70 -95z"/>
<path d="M5078 7673 c34 -125 41 -135 79 -131 36 4 37 -2 -35 132 -27 50 -54
92 -60 94 -6 2 1 -38 16 -95z"/>
<path d="M3130 7659 c-53 -10 -189 -77 -204 -101 -16 -25 0 -33 62 -32 79 1
203 47 296 109 26 17 27 20 10 26 -25 10 -108 9 -164 -2z"/>
<path d="M4678 7663 c-31 -8 -20 -19 50 -56 96 -50 188 -80 249 -81 58 0 72 7
57 32 -42 65 -261 130 -356 105z"/>
<path d="M2392 7607 c-74 -62 -144 -144 -178 -209 -29 -58 -67 -158 -62 -163
10 -10 74 67 136 160 36 55 92 134 124 176 83 109 78 118 -20 36z"/>
<path d="M5490 7654 c0 -3 18 -26 39 -51 22 -24 83 -109 135 -187 97 -144 127
-181 144 -175 11 4 -41 137 -72 185 -38 58 -102 129 -165 181 -61 50 -81 61
-81 47z"/>
<path d="M2510 7559 c-19 -28 -61 -86 -93 -128 -64 -83 -61 -95 18 -69 35 12
42 20 66 78 34 81 60 170 51 170 -4 0 -23 -23 -42 -51z"/>
<path d="M5410 7597 c0 -15 49 -154 70 -199 10 -20 24 -29 62 -38 27 -7 51
-10 54 -7 5 5 -173 257 -182 257 -2 0 -4 -6 -4 -13z"/>
<path d="M2651 7450 c-60 -22 -81 -36 -81 -56 0 -24 91 -16 187 15 48 17 108
33 133 37 68 11 23 23 -90 23 -69 0 -109 -5 -149 -19z"/>
<path d="M5052 7462 c-9 -6 6 -13 48 -21 33 -7 90 -23 126 -37 63 -23 174 -34
174 -16 0 13 -41 46 -75 62 -35 15 -254 25 -273 12z"/>
<path d="M1968 7348 c-130 -153 -189 -267 -216 -417 -13 -73 9 -68 37 9 24 65
144 305 166 330 7 8 20 31 30 50 10 18 24 40 31 48 8 7 14 18 14 23 0 20 -20
6 -62 -43z"/>
<path d="M2887 7384 c-85 -20 -100 -31 -56 -39 27 -5 51 -1 90 16 97 40 81 51
-34 23z"/>
<path d="M4973 7394 c12 -13 122 -54 142 -54 24 0 50 16 39 23 -33 19 -198 47
-181 31z"/>
<path d="M5940 7393 c0 -6 22 -47 48 -90 70 -113 134 -235 177 -335 36 -85 55
-109 55 -69 0 40 -53 199 -86 259 -51 95 -194 266 -194 235z"/>
<path d="M2438 7281 c-118 -27 -200 -73 -295 -168 -88 -86 -104 -118 -55 -107
15 4 41 19 57 34 42 39 161 114 226 143 104 46 255 86 373 98 6 1 -2 5 -19 9
-53 14 -208 9 -287 -9z"/>
<path d="M5240 7291 c-21 -7 -18 -9 25 -15 210 -30 388 -106 556 -237 37 -29
89 -46 89 -29 0 6 -36 48 -80 94 -95 99 -175 146 -301 176 -85 20 -238 26
-289 11z"/>
<path d="M5901 7265 c0 -11 7 -38 15 -60 8 -22 20 -56 25 -75 19 -62 82 -159
111 -169 27 -10 27 -9 15 17 -15 34 -94 182 -107 202 -6 8 -21 35 -35 60 -16
29 -25 38 -24 25z"/>
<path d="M2013 7195 c-76 -132 -125 -226 -120 -231 7 -8 57 7 57 17 0 5 13 31
30 57 31 51 83 197 77 216 -2 6 -22 -21 -44 -59z"/>
<path d="M2565 7181 c-33 -10 -84 -27 -112 -38 -56 -22 -209 -109 -218 -124
-5 -8 69 -26 87 -21 3 1 35 22 71 47 36 25 109 68 163 96 55 29 101 53 103 55
10 9 -39 1 -94 -15z"/>
<path d="M5310 7195 c0 -2 37 -23 83 -45 45 -23 121 -68 169 -100 84 -57 88
-58 127 -48 23 6 41 13 41 17 0 9 -145 92 -209 119 -49 20 -183 61 -203 62 -5
0 -8 -2 -8 -5z"/>
<path d="M1493 7089 c-31 -38 -115 -226 -144 -324 -27 -93 -33 -131 -37 -247
-3 -90 -1 -138 6 -138 19 0 82 80 82 104 0 38 38 256 54 311 20 68 58 273 54
292 -3 14 -5 14 -15 2z"/>
<path d="M1576 7040 c-9 -68 -28 -173 -71 -378 -32 -158 -32 -171 5 -93 17 35
51 94 77 130 l46 66 -12 117 c-7 65 -19 141 -25 170 l-12 53 -8 -65z"/>
<path d="M6466 7018 c7 -46 31 -166 53 -268 21 -102 42 -213 46 -247 6 -55 10
-64 46 -92 l38 -32 7 27 c18 69 -13 287 -60 419 -42 122 -118 275 -137 275 -3
0 0 -37 7 -82z"/>
<path d="M6373 7060 c-20 -59 -33 -150 -33 -232 0 -72 3 -82 29 -116 16 -20
48 -71 70 -112 22 -41 41 -66 41 -55 0 11 -14 83 -30 160 -34 156 -58 290 -62
350 l-3 40 -12 -35z"/>
<path d="M2060 6923 c-110 -18 -234 -84 -323 -171 -70 -69 -133 -149 -124
-159 3 -3 31 16 62 41 133 108 329 220 465 266 36 12 67 24 69 26 5 5 -115 3
-149 -3z"/>
<path d="M5760 6928 c0 -3 35 -18 78 -33 164 -58 392 -196 497 -301 12 -13 15
-13 15 -1 0 23 -94 140 -152 190 -57 48 -139 93 -223 122 -47 16 -215 34 -215
23z"/>
<path d="M2064 6796 c-120 -58 -310 -173 -301 -183 3 -2 35 -1 71 3 63 6 71
11 134 63 37 31 104 80 149 108 76 49 105 74 86 73 -4 -1 -67 -29 -139 -64z"/>
<path d="M5761 6846 c2 -2 45 -31 94 -64 50 -32 114 -81 144 -107 50 -46 58
-50 124 -57 39 -4 72 -6 74 -4 6 6 -131 98 -212 141 -94 50 -244 111 -224 91z"/>
<path d="M920 6658 c-71 -185 -106 -463 -81 -640 13 -90 45 -193 71 -228 l19
-25 10 27 c7 18 7 73 1 168 -10 138 -2 320 20 510 12 107 13 270 1 270 -5 0
-24 -37 -41 -82z"/>
<path d="M1037 6692 c3 -26 -2 -153 -11 -282 -17 -244 -21 -440 -9 -440 3 0
32 24 63 53 32 28 65 58 74 65 19 15 20 55 6 226 -12 142 -39 262 -78 349 -37
82 -50 90 -45 29z"/>
<path d="M6893 6680 c-61 -125 -93 -293 -93 -491 0 -89 2 -98 23 -111 12 -9
46 -39 76 -69 l54 -54 -8 245 c-4 135 -10 313 -14 395 l-6 150 -32 -65z"/>
<path d="M7003 6563 c4 -98 11 -218 18 -268 7 -58 9 -152 5 -265 -9 -224 -9
-241 1 -251 14 -14 29 4 56 73 35 89 47 168 47 318 0 144 -19 280 -54 395 -28
92 -62 175 -72 175 -4 0 -4 -80 -1 -177z"/>
<path d="M1725 6515 c-145 -37 -232 -84 -328 -174 -51 -48 -112 -129 -104
-137 2 -3 51 29 108 70 111 80 263 162 397 216 45 18 85 36 88 41 9 16 -69 8
-161 -16z"/>
<path d="M6084 6533 c6 -10 52 -33 136 -68 152 -63 340 -174 412 -242 38 -37
45 -23 14 29 -47 81 -169 176 -285 224 -101 40 -292 80 -277 57z"/>
<path d="M1720 6382 c-125 -62 -218 -116 -255 -146 -34 -28 -29 -30 62 -17 63
9 77 18 270 170 31 25 42 42 26 40 -5 0 -51 -22 -103 -47z"/>
<path d="M6140 6415 c7 -8 65 -55 129 -103 116 -89 116 -89 189 -96 39 -3 72
-4 72 -2 0 11 -172 112 -274 161 -123 59 -135 63 -116 40z"/>
<path d="M4345 6208 c-394 -61 -577 -97 -880 -174 -249 -62 -790 -244 -812
-272 -19 -23 -16 -71 3 -79 9 -3 44 4 78 17 202 74 543 185 661 215 28 7 95
25 150 40 177 48 500 113 695 140 184 26 237 34 254 41 23 9 20 50 -6 68 -25
17 -52 18 -143 4z"/>
<path d="M1410 6116 c-167 -44 -286 -128 -350 -247 -18 -34 -26 -58 -19 -53 8
4 39 25 69 45 96 64 185 103 328 145 14 4 65 111 60 124 -2 5 -41 -2 -88 -14z"/>
<path d="M6466 6132 c-2 -4 9 -35 25 -68 26 -56 32 -62 66 -69 61 -11 239 -91
304 -136 32 -23 62 -40 65 -36 16 15 -60 117 -132 178 -62 51 -121 82 -209
107 -97 28 -114 31 -119 24z"/>
<path d="M501 6087 c-1 -4 -20 -81 -43 -170 -38 -146 -42 -174 -42 -282 0
-146 22 -262 70 -362 19 -40 38 -73 42 -73 12 0 14 698 1 779 -10 66 -27 130
-28 108z"/>
<path d="M594 6048 c20 -114 26 -249 21 -521 -5 -271 0 -347 18 -327 18 20 77
158 91 212 29 117 30 182 7 307 -24 121 -49 199 -100 299 -35 69 -46 78 -37
30z"/>
<path d="M7363 6068 c-6 -7 -24 -40 -40 -73 -94 -189 -126 -408 -84 -576 22
-84 79 -211 99 -217 9 -3 12 73 12 356 0 277 3 378 15 438 15 81 15 93 -2 72z"/>
<path d="M7436 5978 c-13 -84 -16 -165 -14 -440 2 -198 7 -337 12 -335 17 6
65 102 81 162 8 33 22 110 31 171 16 111 16 112 -10 240 -31 156 -69 304 -77
304 -3 0 -14 -46 -23 -102z"/>
<path d="M4220 6033 c-456 -77 -750 -147 -1115 -267 -172 -56 -265 -90 -265
-98 0 -3 17 -12 38 -19 55 -18 149 -66 222 -114 59 -40 179 -152 213 -199 14
-19 19 -18 188 32 203 60 289 81 456 113 l122 23 11 50 c13 62 56 187 83 241
28 57 111 176 147 210 52 50 43 53 -100 28z"/>
<path d="M1338 5891 c-176 -64 -342 -196 -411 -329 -19 -37 -38 -83 -41 -102
-6 -33 1 -27 116 91 137 141 236 227 348 302 119 79 117 85 -12 38z"/>
<path d="M6521 5916 c2 -2 54 -36 114 -76 87 -58 144 -108 278 -243 92 -93
170 -167 173 -165 2 3 -2 23 -10 45 -64 183 -228 332 -454 416 -64 24 -114 35
-101 23z"/>
<path d="M1389 5796 c-82 -60 -120 -94 -270 -242 -75 -74 -131 -134 -124 -134
7 0 41 9 74 19 77 24 194 112 260 195 60 75 133 194 123 199 -4 3 -32 -14 -63
-37z"/>
<path d="M6510 5830 c0 -7 25 -51 56 -98 58 -91 190 -229 246 -259 53 -27 158
-62 163 -53 7 11 -272 278 -363 348 -95 72 -102 76 -102 62z"/>
<path d="M215 5644 c25 -61 46 -147 65 -265 44 -279 62 -338 124 -414 l24 -30
11 27 c5 15 24 46 41 69 16 23 30 45 30 50 0 4 -22 40 -48 81 -42 64 -61 102
-92 184 -5 11 -16 80 -26 153 -19 145 -19 145 -94 157 -40 7 -43 6 -35 -12z"/>
<path d="M7675 5646 l-40 -12 -7 -74 c-18 -189 -57 -310 -135 -413 -23 -31
-43 -59 -43 -61 0 -3 88 -137 95 -144 2 -2 21 28 44 66 45 78 59 129 96 361
14 90 35 187 46 215 31 82 26 87 -56 62z"/>
<path d="M3955 5420 c-173 -32 -336 -73 -517 -131 -117 -37 -128 -43 -128 -65
0 -13 4 -24 9 -24 4 0 55 16 112 35 183 62 425 122 633 156 77 13 105 31 75
50 -18 11 -8 12 -184 -21z"/>
<path d="M971 5319 c-36 -18 -92 -58 -129 -94 l-66 -62 -6 -67 c-3 -37 -2 -70
2 -72 4 -3 18 5 30 16 26 25 175 124 199 132 9 4 22 33 32 77 10 38 20 77 23
86 9 22 -13 18 -85 -16z"/>
<path d="M6911 5338 c0 -7 8 -44 18 -83 17 -69 18 -70 77 -104 32 -19 87 -56
121 -83 35 -26 65 -48 68 -48 3 0 5 26 5 58 0 46 -5 65 -25 93 -43 57 -106
109 -177 145 -73 37 -88 41 -87 22z"/>
<path d="M3895 5300 c-193 -41 -452 -113 -468 -130 -5 -4 -2 -18 6 -31 8 -13
25 -55 38 -94 12 -38 24 -72 25 -74 2 -2 43 10 91 26 48 17 117 38 153 46 147
37 238 57 286 63 70 9 75 13 64 54 -7 28 -14 88 -19 163 -1 12 -38 7 -176 -23z"/>
<path d="M1015 5093 c-177 -92 -353 -282 -405 -439 -21 -62 -21 -65 -4 -112 9
-26 20 -50 24 -55 3 -4 34 37 69 90 34 54 92 146 129 204 92 144 136 203 206
277 64 67 59 76 -19 35z"/>
<path d="M6906 5088 c16 -18 37 -41 46 -50 9 -10 29 -34 45 -55 15 -21 31 -40
34 -43 6 -5 90 -134 143 -220 111 -180 154 -240 163 -228 19 26 36 97 29 129
-29 148 -221 364 -419 473 -64 35 -77 33 -41 -6z"/>
<path d="M1104 5027 c-106 -114 -136 -155 -244 -337 -41 -69 -102 -165 -137
-213 -55 -77 -75 -117 -58 -117 18 0 115 62 160 103 71 63 169 185 204 256 32
63 135 350 128 357 -2 2 -26 -20 -53 -49z"/>
<path d="M6805 5063 c4 -10 29 -79 54 -153 67 -193 108 -263 223 -384 97 -103
208 -180 223 -156 4 6 -22 50 -56 98 -35 48 -98 146 -140 217 -73 123 -111
181 -134 208 -6 7 -21 25 -33 41 -82 107 -157 177 -137 129z"/>
<path d="M578 5036 c-47 -64 -77 -116 -98 -168 l-23 -57 29 -42 29 -42 11 69
c18 109 37 168 82 257 9 17 -14 4 -30 -17z"/>
<path d="M3990 5043 c-84 -17 -292 -71 -418 -109 -74 -23 -105 -44 -89 -60 3
-4 54 10 114 29 111 36 352 96 481 119 40 7 74 18 75 23 3 15 -80 14 -163 -2z"/>
<path d="M7360 5055 c0 -3 11 -32 24 -63 28 -66 56 -178 56 -223 0 -38 12 -37
44 6 l26 34 -24 59 c-31 78 -126 218 -126 187z"/>
<path d="M677 5033 c-3 -5 -19 -44 -36 -87 -35 -88 -38 -131 -6 -81 11 17 28
39 37 49 13 14 18 36 18 73 0 50 -3 62 -13 46z"/>
<path d="M7277 5020 c-14 -52 -7 -85 23 -117 17 -18 30 -37 30 -42 0 -6 5 -11
11 -11 14 0 6 45 -19 102 -10 24 -23 54 -29 68 l-10 24 -6 -24z"/>
<path d="M203 4949 c7 -32 16 -57 68 -194 20 -52 74 -152 162 -299 43 -72 55
-72 56 -2 1 18 5 26 14 23 51 -21 50 -21 42 4 -4 13 -23 60 -42 104 -35 82
-93 161 -232 316 -70 78 -74 81 -68 48z"/>
<path d="M7710 4919 c-30 -34 -59 -67 -65 -73 -41 -42 -127 -151 -148 -187
-43 -73 -86 -188 -74 -196 6 -4 13 -1 15 5 8 25 31 11 38 -23 8 -45 19 -52 37
-23 7 13 34 57 58 98 68 112 135 256 169 360 17 51 29 95 27 96 -2 2 -28 -24
-57 -57z"/>
<path d="M4030 4954 c-265 -58 -480 -117 -480 -132 0 -4 34 -106 75 -227 41
-120 75 -220 75 -222 0 -2 26 -3 59 -3 l59 0 -69 212 c-43 129 -66 215 -60
221 5 5 17 7 27 5 15 -2 34 -49 90 -218 l70 -215 55 3 c30 2 55 5 57 7 2 2 -1
25 -6 51 -6 27 -27 132 -47 233 -31 151 -35 185 -24 192 25 16 43 5 51 -31 4
-19 21 -107 38 -195 47 -247 50 -255 68 -253 44 3 72 -4 106 -27 20 -14 39
-25 42 -25 6 0 5 6 -31 235 -13 83 -31 197 -40 255 -21 136 -25 150 -39 149
-6 -1 -40 -8 -76 -15z"/>
<path d="M7811 4860 c-40 -121 -87 -223 -186 -395 -103 -178 -108 -192 -95
-241 7 -24 16 -44 20 -44 14 0 137 132 169 180 74 112 123 308 119 470 l-3
105 -24 -75z"/>
<path d="M123 4798 c10 -229 80 -408 212 -545 79 -82 87 -84 103 -23 8 31 4
45 -41 130 -27 52 -65 121 -84 152 -52 88 -139 276 -160 345 -10 35 -22 63
-27 63 -5 0 -6 -54 -3 -122z"/>
<path d="M0 4532 c0 -77 66 -273 120 -354 17 -25 54 -61 83 -81 58 -38 151
-87 165 -87 5 0 14 18 20 40 l10 39 -78 70 c-93 85 -160 180 -205 292 -24 60
-42 89 -62 101 -42 27 -53 23 -53 -20z"/>
<path d="M7903 4548 c-18 -11 -33 -26 -33 -34 0 -28 -59 -153 -99 -211 -46
-67 -87 -112 -155 -170 l-50 -41 13 -41 c6 -23 13 -41 16 -41 15 0 106 47 155
80 68 46 95 79 139 170 31 65 81 241 81 286 0 30 -22 30 -67 2z"/>
<path d="M4018 4249 c-4 -74 -23 -95 -57 -65 -16 14 -21 31 -21 69 0 41 -3 48
-16 43 -9 -3 -49 -6 -90 -6 l-74 0 6 -42 c4 -28 0 -59 -11 -88 -9 -25 -18 -52
-21 -60 -9 -29 107 -63 236 -71 130 -7 182 -22 280 -82 86 -53 126 -99 140
-163 6 -28 25 -74 43 -102 43 -67 109 -154 113 -149 3 3 -74 576 -91 673 l-6
32 -117 4 c-85 2 -126 8 -151 21 -33 16 -57 15 -46 -4 4 -5 3 -28 0 -52 -8
-52 -34 -74 -66 -55 -17 11 -19 20 -14 51 7 50 -3 107 -21 107 -9 0 -14 -18
-16 -61z"/>
<path d="M7313 4238 c-36 -59 -73 -150 -73 -176 0 -9 24 -65 54 -124 l54 -107
-2 230 c0 126 -1 229 -1 229 -1 0 -15 -24 -32 -52z"/>
<path d="M614 4060 c0 -121 2 -220 5 -220 3 1 28 46 55 100 41 83 48 106 43
139 -5 43 -55 161 -68 161 -4 0 -11 9 -14 20 -16 49 -20 6 -21 -200z"/>
<path d="M3622 4270 c-53 -22 -51 -83 5 -124 25 -19 26 -19 39 -1 18 24 28 79
20 110 -7 26 -24 30 -64 15z"/>
<path d="M7424 4194 c-6 -50 3 -384 11 -392 2 -2 19 14 39 35 33 36 35 42 36
105 0 37 -6 87 -14 110 -8 24 -22 76 -31 116 -9 40 -21 74 -25 77 -5 3 -12
-20 -16 -51z"/>
<path d="M506 4193 c-23 -71 -56 -223 -56 -264 0 -26 10 -49 35 -83 20 -25 39
-46 43 -46 4 0 9 96 10 214 4 225 -3 266 -32 179z"/>
<path d="M917 4046 c-52 -127 -68 -210 -77 -406 -7 -143 -15 -206 -34 -279
-21 -81 -23 -96 -10 -108 12 -12 18 -10 44 19 53 57 87 143 111 278 19 113 21
145 15 335 -4 116 -11 213 -15 218 -4 4 -19 -22 -34 -57z"/>
<path d="M7005 3975 c-10 -166 -1 -403 19 -488 20 -87 54 -163 96 -210 30 -35
34 -36 50 -22 15 14 16 20 5 53 -29 82 -47 206 -55 372 -8 153 -13 186 -38
265 -37 113 -55 155 -63 155 -4 0 -10 -56 -14 -125z"/>
<path d="M808 4022 c-68 -105 -145 -282 -164 -377 -15 -78 -16 -101 -6 -185
10 -78 16 -98 35 -112 12 -10 27 -18 33 -18 17 0 43 138 54 285 13 169 36 303
66 389 13 39 22 71 21 72 -1 2 -19 -23 -39 -54z"/>
<path d="M7130 4027 c38 -108 50 -172 65 -337 17 -192 45 -360 60 -360 24 1
57 39 65 75 15 62 12 202 -6 271 -26 106 -122 308 -180 379 l-24 30 20 -58z"/>
<path d="M3385 4004 c-13 -20 -16 -38 -11 -71 10 -78 42 -132 124 -213 111
-109 241 -171 406 -194 36 -5 38 -4 32 17 -18 62 -24 116 -16 155 7 38 5 42
-9 37 -94 -38 -268 15 -367 111 -48 47 -124 154 -124 174 0 18 -18 10 -35 -16z"/>
<path d="M182 3998 c55 -44 132 -199 194 -386 45 -136 99 -261 128 -297 15
-19 15 -17 10 36 l-6 57 26 -5 c24 -5 26 -3 26 28 -1 71 -20 182 -40 226 -46
105 -284 353 -338 353 -14 0 -14 -1 0 -12z"/>
<path d="M7703 3962 c-53 -45 -77 -69 -171 -175 -85 -96 -122 -191 -122 -313
0 -71 1 -74 24 -74 22 0 23 -3 18 -50 -2 -27 -2 -50 1 -50 13 0 89 178 142
330 32 91 64 179 73 195 21 43 82 136 105 163 38 42 -8 25 -70 -26z"/>
<path d="M103 3949 c4 -19 11 -74 17 -124 17 -144 50 -294 78 -353 44 -93 139
-182 245 -230 16 -8 5 20 -28 73 -20 30 -38 63 -42 73 -3 9 -15 37 -26 62 -11
25 -32 93 -48 151 -34 130 -73 217 -134 303 -58 81 -70 90 -62 45z"/>
<path d="M7808 3918 c-68 -94 -105 -174 -139 -305 -30 -119 -75 -227 -130
-317 -17 -26 -28 -51 -25 -53 3 -3 37 13 75 36 156 92 215 218 256 548 8 67
18 128 21 137 14 35 -15 12 -58 -46z"/>
<path d="M3762 3933 c-20 -28 -45 -103 -38 -111 8 -7 81 -22 114 -22 29 0 32
3 32 30 0 44 -23 93 -53 113 -33 22 -32 22 -55 -10z"/>
<path d="M3963 3953 c-24 -2 -43 -6 -43 -7 0 -2 7 -20 15 -39 8 -20 15 -59 15
-87 0 -47 1 -50 19 -40 29 15 98 12 134 -6 91 -48 127 -99 127 -183 0 -39 4
-53 19 -60 53 -29 62 -127 17 -194 -23 -33 -23 -34 -5 -56 13 -16 19 -39 19
-72 0 -39 -5 -54 -27 -76 -16 -16 -43 -35 -60 -42 -18 -7 -33 -19 -33 -25 0
-16 45 -144 53 -152 5 -5 207 43 216 52 2 2 -8 79 -23 171 -62 394 -96 617
-96 638 0 47 -109 125 -229 164 -35 12 -67 20 -70 19 -3 -1 -25 -3 -48 -5z"/>
<path d="M4013 3712 c-21 -14 -23 -57 -5 -122 l17 -65 45 3 c108 9 115 109 13
165 -57 30 -54 29 -70 19z"/>
<path d="M3490 3593 c0 -35 43 -104 88 -141 108 -89 188 -114 363 -113 128 1
137 5 127 57 l-9 41 -102 7 c-56 3 -130 13 -165 21 -66 16 -179 69 -249 116
-48 34 -53 35 -53 12z"/>
<path d="M4158 3463 c-25 -6 -23 -54 4 -83 l21 -23 19 23 c22 28 24 76 2 84
-17 6 -19 6 -46 -1z"/>
<path d="M118 3294 c-4 -3 7 -36 24 -72 16 -37 39 -89 51 -117 23 -54 109
-210 129 -235 7 -9 42 -24 78 -35 36 -10 82 -26 102 -36 20 -9 39 -15 41 -12
3 2 -2 34 -10 71 -8 37 -17 105 -21 152 l-7 85 -70 48 c-65 46 -243 138 -291
151 -11 4 -23 4 -26 0z"/>
<path d="M7785 3281 c-65 -22 -190 -91 -271 -149 l-64 -46 0 -70 c0 -39 -8
-106 -19 -148 -10 -43 -16 -80 -13 -82 2 -3 16 1 31 8 14 8 62 24 105 37 75
23 81 26 111 74 50 77 107 191 148 292 20 51 37 95 37 98 0 7 -9 5 -65 -14z"/>
<path d="M3682 3268 c34 -51 199 -110 345 -124 l71 -6 -1 66 -2 67 -50 -7
c-82 -11 -216 -7 -288 10 -89 21 -92 20 -75 -6z"/>
<path d="M6840 3268 c0 -4 8 -29 19 -55 20 -51 46 -194 57 -307 l6 -68 32 78
c18 44 38 89 44 100 10 18 6 30 -24 80 -19 32 -52 78 -72 103 -20 25 -42 52
-49 60 -7 9 -13 13 -13 9z"/>
<path d="M1070 3208 c-24 -29 -58 -78 -78 -108 -32 -50 -34 -57 -22 -85 7 -16
22 -55 34 -85 39 -101 42 -101 49 2 7 104 28 215 53 277 9 23 14 44 11 47 -3
3 -24 -18 -47 -48z"/>
<path d="M4170 3216 c0 -29 19 -44 31 -25 13 20 6 43 -14 47 -12 3 -17 -3 -17
-22z"/>
<path d="M7229 3197 c-50 -45 -95 -109 -123 -172 -10 -22 -34 -71 -52 -110
-18 -38 -42 -94 -54 -123 -27 -71 -46 -234 -33 -287 l9 -40 21 40 c20 41 84
228 123 365 30 102 84 233 127 303 19 32 33 60 31 62 -2 2 -24 -15 -49 -38z"/>
<path d="M690 3222 c0 -4 4 -12 9 -17 26 -27 103 -206 141 -325 78 -254 91
-291 123 -358 l32 -67 3 90 c5 135 -11 201 -86 364 -77 170 -114 232 -170 284
-40 37 -52 44 -52 29z"/>
<path d="M1180 3205 c-6 -16 -21 -66 -33 -110 -19 -71 -22 -102 -20 -274 2
-178 -10 -324 -33 -408 -4 -14 -2 -23 5 -23 21 0 53 85 92 239 34 138 39 170
39 275 0 122 -16 289 -31 316 -6 12 -10 8 -19 -15z"/>
<path d="M6756 3198 c-15 -86 -27 -282 -21 -355 12 -156 98 -453 130 -453 9 0
9 14 -2 58 -10 38 -17 147 -23 332 -4 151 -12 289 -18 305 -6 17 -18 56 -28
88 -9 31 -20 57 -24 57 -4 0 -10 -15 -14 -32z"/>
<path d="M611 3038 c0 -137 4 -175 22 -238 19 -63 27 -78 57 -97 19 -13 68
-56 109 -96 41 -39 71 -63 67 -52 -26 65 -58 164 -87 265 -17 63 -44 145 -59
181 -27 67 -97 199 -105 199 -3 0 -5 -73 -4 -162z"/>
<path d="M7287 3088 c-36 -72 -73 -169 -102 -267 -25 -85 -45 -158 -45 -163 0
-4 -11 -30 -24 -58 -13 -27 -22 -51 -20 -53 2 -2 35 26 72 62 37 36 85 80 105
96 61 49 79 115 85 323 3 113 1 172 -5 172 -6 0 -36 -51 -66 -112z"/>
<path d="M4344 2881 c-61 -15 -125 -33 -143 -40 -52 -22 -56 -97 -6 -119 21
-10 48 -7 153 19 154 36 180 46 193 71 22 42 -13 99 -59 97 -15 -1 -77 -13
-138 -28z"/>
<path d="M250 2782 c0 -4 17 -26 38 -47 82 -87 163 -152 302 -243 137 -89 262
-181 304 -225 24 -25 30 -12 17 42 -24 106 -169 274 -301 348 -41 23 -138 62
-214 87 -156 51 -146 49 -146 38z"/>
<path d="M7565 2744 c-235 -78 -335 -147 -448 -309 -51 -73 -62 -98 -66 -150
l-3 -40 33 30 c18 17 39 36 47 43 31 28 161 120 242 171 47 30 112 74 145 99
68 52 205 181 205 194 0 12 -14 9 -155 -38z"/>
<path d="M205 2689 c50 -235 225 -414 496 -508 88 -31 208 -55 218 -45 12 12
-161 150 -320 255 -148 98 -248 177 -328 258 -71 73 -73 74 -66 40z"/>
<path d="M7695 2649 c-82 -83 -172 -154 -344 -268 -132 -87 -238 -169 -285
-220 -34 -36 -35 -36 65 -16 249 47 481 202 569 380 25 49 74 195 67 195 -2 0
-34 -32 -72 -71z"/>
<path d="M4377 2690 c-38 -10 -71 -21 -74 -24 -3 -3 1 -23 9 -43 14 -36 16
-38 59 -37 25 0 60 6 78 14 31 12 32 15 29 59 -4 55 -8 56 -101 31z"/>
<path d="M6608 2529 c4 -123 -10 -258 -34 -348 -9 -32 5 -23 87 53 58 54 63
61 60 98 -2 50 -51 199 -89 274 l-29 57 5 -134z"/>
<path d="M1317 2568 c-44 -104 -77 -211 -77 -250 0 -21 8 -37 28 -51 15 -12
49 -42 76 -67 l49 -45 -7 40 c-37 222 -43 310 -27 408 4 26 5 47 1 47 -4 0
-23 -37 -43 -82z"/>
<path d="M1426 2609 c-3 -18 -6 -79 -6 -138 0 -85 8 -138 38 -271 25 -113 44
-174 59 -193 l22 -28 5 33 c15 94 13 198 -5 293 -20 106 -84 321 -98 330 -5 2
-11 -9 -15 -26z"/>
<path d="M6502 2584 c-33 -94 -70 -233 -83 -316 -12 -79 -9 -261 5 -275 9 -9
44 34 50 62 3 11 19 81 36 155 26 113 31 155 32 260 0 69 -4 136 -9 149 -9 21
-11 18 -31 -35z"/>
<path d="M3700 2395 c-199 -18 -263 -28 -560 -90 -60 -13 -237 -64 -388 -114
-215 -70 -659 -279 -892 -421 -223 -135 -542 -352 -664 -453 l-30 -24 85 14
c271 45 568 30 876 -43 l103 -24 87 50 c367 211 788 363 1163 420 41 6 102 16
135 21 33 5 151 13 263 19 367 18 734 -14 1052 -91 139 -34 390 -115 474 -154
30 -14 58 -25 62 -25 12 0 368 -180 416 -211 l48 -31 88 21 c195 46 258 56
460 71 129 9 308 0 440 -23 39 -7 72 -10 72 -6 0 3 -19 19 -42 35 -24 16 -86
61 -138 100 -95 70 -414 284 -424 284 -3 0 -29 15 -58 34 -123 78 -553 301
-618 321 -14 4 -43 15 -65 25 -80 34 -102 43 -208 81 -326 116 -687 193 -1033
218 -181 14 -520 12 -704 -4z m868 -101 c12 -25 19 -50 16 -56 -4 -6 -2 -8 4
-4 6 3 13 -6 17 -24 8 -38 24 -46 110 -54 39 -4 108 -16 155 -26 47 -10 105
-23 130 -28 163 -34 641 -186 775 -246 17 -8 46 -19 67 -27 33 -11 35 -14 26
-35 -8 -18 -17 -22 -33 -18 -18 4 -24 0 -32 -23 -6 -15 -25 -61 -44 -101 -32
-71 -34 -74 -63 -68 -39 8 -40 10 -28 45 l11 31 -48 0 c-105 0 -161 40 -169
121 -4 48 -3 52 14 45 10 -4 33 -10 51 -13 25 -4 33 -1 43 16 20 39 5 56 -76
79 -42 13 -77 22 -79 20 -1 -2 -19 -51 -39 -110 l-38 -106 -32 10 c-17 6 -32
12 -34 13 -1 1 14 48 33 104 19 56 35 106 35 111 0 13 -79 35 -88 24 -4 -5
-22 -54 -41 -110 l-33 -101 -31 7 c-27 5 -32 11 -30 32 1 24 -1 26 -58 30
-100 7 -155 69 -112 126 22 30 59 38 131 27 33 -5 42 -10 40 -23 -3 -14 -13
-16 -55 -14 -46 3 -52 1 -58 -19 -10 -31 25 -59 74 -59 49 0 58 8 76 66 24 81
37 71 -158 117 l-98 23 6 -36 c8 -49 -18 -81 -73 -89 -40 -6 -41 -7 -29 -31 8
-15 24 -27 45 -31 41 -8 44 -12 36 -33 -5 -14 -14 -16 -43 -11 -53 10 -80 31
-102 81 -14 30 -26 44 -39 44 -15 0 -20 7 -20 26 0 25 2 26 33 20 76 -17 93
-17 112 -3 16 13 18 20 10 43 -8 22 -20 30 -60 41 -28 7 -72 14 -100 15 l-50
3 -15 -113 -14 -114 -34 6 c-19 3 -36 7 -39 10 -4 4 7 96 23 187 l6 36 -48 6
c-27 3 -50 4 -51 3 -2 -2 -6 -50 -9 -109 -4 -58 -10 -110 -14 -116 -4 -7 -19
-9 -39 -5 l-33 7 7 113 7 114 -46 0 -46 0 0 -60 c0 -52 -4 -64 -25 -84 -65
-60 -225 -43 -249 27 -8 22 -6 31 11 48 17 17 37 22 107 26 75 5 86 8 86 24 0
17 -9 19 -77 20 -153 3 -148 2 -151 27 l-4 23 266 -3 c146 -2 266 -1 266 2 0
3 -18 16 -39 30 -33 22 -37 28 -30 48 9 23 9 23 44 -15 19 -21 40 -45 47 -54
7 -10 24 -20 36 -24 22 -6 23 -5 17 17 -4 12 -22 41 -39 63 -47 58 -50 66 -35
76 25 16 35 10 57 -37z m-1502 -83 c-4 -6 -15 -11 -25 -11 -21 0 -48 -29 -45
-47 1 -7 2 -17 3 -22 0 -5 17 -19 37 -32 36 -22 37 -22 112 -5 179 38 350 64
525 81 l67 7 0 -26 c0 -17 -5 -26 -16 -26 -15 0 -16 -10 -9 -87 14 -152 15
-147 -25 -147 l-35 -1 -7 60 c-4 33 -10 86 -13 117 l-6 57 -47 -6 c-26 -3 -49
-7 -51 -10 -3 -2 3 -50 12 -107 9 -57 17 -109 17 -115 0 -6 -17 -11 -39 -11
l-38 0 -7 62 c-3 34 -8 63 -10 65 -7 7 -169 -27 -183 -38 -7 -6 -13 -24 -13
-40 0 -31 23 -49 64 -49 19 0 26 -5 26 -20 0 -18 -7 -20 -56 -20 -48 0 -59 4
-85 29 -21 21 -29 39 -29 63 0 56 32 77 156 103 84 17 108 25 110 39 1 9 -3
19 -10 22 -12 5 -261 -37 -321 -54 -34 -10 -34 -8 1 -131 13 -46 24 -89 24
-96 0 -10 -58 -31 -66 -23 -1 2 -16 50 -33 107 -17 57 -33 106 -35 109 -9 8
-66 -10 -66 -20 0 -6 7 -35 17 -64 15 -49 15 -54 -1 -78 -36 -56 -154 -86
-202 -52 -12 8 -29 37 -39 63 -10 26 -21 52 -25 56 -7 8 -80 -17 -80 -28 0 -3
9 -24 19 -48 11 -23 31 -70 46 -103 25 -58 29 -62 66 -68 25 -4 50 -17 69 -38
36 -37 37 -44 9 -51 -16 -4 -30 2 -50 24 -18 20 -37 29 -58 29 -46 0 -81 -20
-81 -46 0 -26 22 -37 53 -25 26 10 53 -1 44 -17 -4 -5 -27 -15 -52 -22 -39
-11 -48 -10 -70 4 -45 30 -42 96 6 111 14 5 18 12 14 23 -4 10 -12 30 -17 45
l-10 28 -27 -25 c-87 -83 -216 -56 -216 46 0 38 -1 39 -26 34 -19 -4 -29 0
-33 11 -10 26 -6 28 214 111 136 51 458 152 486 152 23 0 16 14 -15 28 -31 14
-65 71 -56 95 7 18 42 37 86 46 36 8 56 0 45 -18z m-948 -466 c7 -14 12 -28
12 -30 0 -3 -25 -19 -55 -36 -30 -17 -55 -34 -55 -38 0 -4 7 -16 15 -27 14
-19 15 -18 65 9 27 15 54 27 60 27 5 0 30 -40 54 -88 42 -84 43 -89 25 -100
-32 -21 -47 -14 -71 34 -26 53 -38 60 -68 44 l-21 -11 31 -56 c17 -30 28 -59
23 -63 -4 -5 -43 -27 -86 -50 -63 -33 -80 -38 -90 -28 -32 33 -27 46 28 78 59
34 62 37 42 64 -12 17 -16 16 -70 -10 -31 -15 -58 -26 -60 -23 -11 13 -87 160
-87 169 0 5 13 16 29 24 l28 15 30 -58 c26 -50 33 -57 50 -50 35 13 36 27 3
83 l-30 54 82 45 c46 25 88 46 94 46 6 1 16 -10 22 -24z m3977 13 c31 -14 31
-17 -2 -84 -28 -58 -28 -58 4 -68 18 -6 26 2 53 48 l31 56 77 -40 c110 -56
106 -52 85 -87 l-17 -31 -55 29 c-29 16 -57 29 -60 29 -3 0 -11 -11 -18 -25
-11 -25 -9 -27 47 -55 l59 -30 -47 -90 c-26 -49 -51 -90 -57 -90 -6 0 -21 7
-33 16 l-23 16 31 56 c28 53 29 58 13 69 -30 22 -43 14 -69 -42 l-26 -54 -89
44 c-49 25 -89 51 -89 58 0 7 6 22 14 33 15 19 16 18 72 -10 55 -29 57 -29 70
-11 20 27 14 36 -39 65 -25 14 -49 28 -52 32 -8 8 78 178 90 178 2 0 16 -5 30
-12z"/>
<path d="M4086 2055 c-35 -35 17 -65 83 -49 29 7 37 14 39 37 3 27 2 27 -52
27 -36 0 -60 -5 -70 -15z"/>
<path d="M5640 1827 c0 -12 -7 -33 -16 -46 -14 -20 -23 -23 -60 -18 -50 5 -53
1 -23 -37 17 -22 28 -26 70 -26 64 0 104 21 118 61 17 49 14 56 -29 73 -53 21
-60 20 -60 -7z"/>
<path d="M2818 1956 c-20 -6 -39 -14 -42 -17 -3 -3 1 -27 10 -52 18 -52 47
-68 90 -48 35 15 38 34 19 86 -19 48 -21 49 -77 31z"/>
<path d="M2485 1844 c-58 -21 -69 -35 -61 -79 6 -29 14 -39 42 -51 29 -12 39
-12 67 -1 57 24 63 40 37 97 -26 55 -27 55 -85 34z"/>
<path d="M1040 2318 c0 -25 153 -295 180 -318 8 -6 112 -137 164 -204 21 -28
44 -54 50 -58 20 -13 108 -39 113 -34 3 3 -2 35 -11 72 -31 122 -80 198 -216
335 -124 125 -280 241 -280 207z"/>
<path d="M6230 2201 c0 -74 5 -174 12 -222 l12 -89 42 -25 c63 -37 67 -34 59
33 -15 127 -89 400 -116 427 -5 5 -9 -41 -9 -124z"/>
<path d="M6836 2276 c-86 -59 -207 -172 -288 -269 -47 -56 -118 -185 -118
-213 0 -10 79 -64 93 -64 3 0 33 35 67 78 34 42 69 86 78 97 67 81 124 160
159 220 42 73 103 191 103 200 0 12 -19 2 -94 -49z"/>
<path d="M1715 2302 c-41 -100 -88 -272 -101 -371 -8 -60 14 -201 31 -201 22
0 42 35 49 85 3 28 13 84 21 125 19 96 32 365 17 373 -5 4 -13 -1 -17 -11z"/>
<path d="M1807 2145 c-3 -88 -13 -196 -21 -240 -8 -44 -12 -83 -8 -86 4 -4 24
4 45 17 34 22 37 28 37 72 0 72 -28 346 -38 373 -6 16 -11 -25 -15 -136z"/>
<path d="M6146 2292 c-9 -14 -25 -128 -31 -224 -7 -96 -7 -96 19 -114 15 -9
29 -14 32 -11 3 3 0 60 -7 128 -6 68 -9 147 -6 176 5 51 4 62 -7 45z"/>
<path d="M6926 2152 c-16 -33 -113 -184 -143 -222 -81 -102 -133 -170 -133
-175 0 -3 38 -5 85 -5 l85 0 26 53 c38 74 80 209 94 300 6 43 10 81 8 83 -3 2
-12 -13 -22 -34z"/>
<path d="M1015 2138 c24 -147 105 -371 138 -384 7 -2 48 -4 91 -2 l77 3 -58
73 c-89 113 -179 241 -210 300 -15 28 -31 52 -36 52 -5 0 -6 -19 -2 -42z"/>
<path d="M690 1947 c0 -7 46 -61 103 -121 l102 -109 83 13 c45 7 82 13 82 15
0 1 -16 34 -35 74 -19 39 -35 76 -35 81 0 17 -39 30 -137 45 -121 18 -163 19
-163 2z"/>
<path d="M7123 1948 c-107 -13 -145 -29 -155 -64 -4 -16 -16 -45 -27 -64 -40
-75 -40 -76 44 -90 l75 -13 47 44 c56 50 173 180 173 191 0 10 -62 8 -157 -4z"/>
<path d="M1055 1663 c-66 -6 -185 -34 -185 -44 0 -5 30 -9 68 -9 72 0 179 -16
333 -51 76 -17 100 -19 110 -10 8 7 36 27 62 46 43 30 46 35 30 43 -50 27
-256 39 -418 25z"/>
<path d="M6630 1664 c0 -5 28 -28 63 -51 l62 -41 95 19 c52 10 128 19 168 20
80 1 104 14 45 25 -21 3 -56 10 -78 16 -55 13 -355 23 -355 12z"/>
<path d="M780 1537 c0 -3 21 -18 48 -33 26 -15 49 -30 52 -33 28 -35 214 -126
233 -114 51 30 156 118 150 123 -28 26 -483 80 -483 57z"/>
<path d="M6975 1535 c-5 -2 -36 -6 -67 -10 -32 -4 -58 -10 -58 -14 0 -4 21
-23 48 -43 88 -66 79 -66 162 -14 41 26 86 55 100 66 l25 20 -100 -1 c-55 0
-104 -2 -110 -4z"/>
<path d="M1460 1254 c-79 -5 -228 -29 -301 -49 -30 -8 -74 -20 -97 -26 -24 -7
-46 -18 -49 -25 -2 -7 10 -57 27 -111 45 -137 61 -188 110 -344 l43 -136 106
28 c246 64 479 65 741 4 125 -29 319 -96 560 -193 379 -151 575 -213 845 -267
419 -83 854 -84 1259 -4 270 54 447 109 816 254 349 137 454 174 601 209 264
64 527 60 781 -12 l68 -19 56 176 c31 97 69 219 86 271 16 52 34 106 39 119 6
13 6 27 2 32 -14 12 -210 61 -323 79 -104 17 -362 15 -508 -4 -284 -38 -483
-94 -1192 -335 -260 -88 -444 -145 -527 -162 -23 -4 -69 -15 -103 -24 -167
-43 -458 -57 -656 -30 -227 30 -425 85 -953 264 -411 140 -624 204 -816 246
-206 45 -453 68 -615 59z m5172 -184 c22 0 29 -4 26 -17 -2 -14 -14 -16 -70
-14 -38 1 -68 -1 -68 -6 0 -4 -3 -18 -6 -30 -6 -21 -3 -22 30 -16 52 8 113
-21 121 -58 17 -76 -80 -133 -168 -100 -27 10 -57 38 -57 52 0 15 57 10 64 -6
7 -18 67 -20 84 -3 17 17 15 65 -4 76 -10 5 -32 6 -53 1 -20 -5 -47 -9 -60 -9
-26 0 -26 9 0 103 l10 40 61 -7 c34 -3 74 -6 90 -6z m262 -15 c55 -37 46 -176
-15 -219 -45 -31 -157 -13 -172 29 -5 12 1 15 28 15 19 0 35 -4 35 -10 0 -5
15 -10 34 -10 25 0 39 7 50 22 25 35 21 49 -10 38 -112 -43 -198 76 -101 140
37 24 110 22 151 -5z m-5579 -102 c9 -43 21 -94 26 -113 14 -53 11 -60 -20
-60 -26 0 -29 4 -44 63 -9 34 -18 71 -19 82 -3 17 -10 19 -46 17 -53 -5 -58
18 -8 36 19 7 38 22 41 32 4 12 15 20 29 20 20 0 25 -9 41 -77z m315 60 c53
-31 63 -120 20 -190 -37 -61 -156 -66 -194 -8 -16 25 -16 25 13 25 15 0 34 -7
41 -15 27 -32 100 -6 100 36 0 15 -5 16 -29 9 -41 -11 -97 3 -121 31 -32 38
-14 100 35 119 34 15 106 11 135 -7z m4534 -19 c4 -9 5 -18 4 -20 -2 -1 -39
-11 -82 -21 -44 -10 -81 -23 -83 -28 -2 -6 3 -19 10 -29 13 -17 17 -17 91 -2
43 9 79 16 81 16 1 0 5 -8 7 -18 5 -16 -6 -21 -74 -37 -65 -15 -78 -21 -72
-34 3 -9 9 -24 11 -33 7 -23 12 -22 107 2 78 21 96 20 96 -5 0 -14 -20 -21
-140 -49 -78 -19 -110 -20 -110 -5 0 7 -21 58 -46 116 -26 57 -45 105 -43 107
5 5 199 54 220 55 9 1 20 -6 23 -15z m-4094 -15 c52 -12 90 -43 90 -74 0 -18
-5 -21 -29 -17 -18 2 -31 11 -34 22 -7 26 -82 46 -114 31 -43 -20 -30 -33 92
-88 50 -23 61 -33 63 -55 5 -46 -38 -78 -107 -78 -76 0 -126 16 -151 47 -28
36 -26 53 9 53 21 0 32 -6 36 -21 8 -25 43 -39 101 -39 36 0 44 3 44 19 0 23
-13 33 -72 55 -103 38 -126 88 -59 133 37 25 64 28 131 12z m319 -85 l31 -6 0
-134 c0 -141 0 -141 -47 -128 -17 5 -23 14 -23 35 0 25 -5 30 -42 39 -24 6
-50 13 -59 16 -9 2 -28 -5 -42 -17 -21 -16 -35 -19 -59 -14 l-31 7 109 104
c60 57 114 103 120 104 6 0 26 -3 43 -6z m3422 -11 c16 -10 29 -20 29 -24 0
-12 -54 -18 -72 -8 -44 23 -115 3 -138 -41 -20 -38 22 -110 78 -131 48 -18
122 16 122 56 0 28 -6 30 -44 15 -21 -8 -27 -6 -35 9 -9 16 -4 20 41 35 27 9
56 16 63 16 11 0 75 -96 75 -113 0 -11 -33 -17 -45 -7 -9 8 -21 3 -42 -19 -68
-68 -210 -46 -263 41 -58 95 15 187 148 188 34 0 65 -7 83 -17z m-3235 -52
c32 -11 85 -27 117 -36 58 -16 63 -20 49 -43 -7 -10 -18 -9 -55 2 l-48 14 -24
-46 c-82 -159 -77 -154 -105 -147 -14 4 -27 8 -29 11 -2 2 17 46 42 97 26 52
47 97 47 99 0 3 -20 11 -45 18 -48 13 -52 19 -33 38 15 15 13 15 84 -7z m2900
-59 c-3 -6 -40 -20 -81 -33 -41 -13 -75 -27 -75 -30 0 -4 8 -16 18 -28 l17
-22 74 25 c74 26 91 26 91 1 0 -11 -66 -45 -90 -45 -5 0 -20 -4 -34 -10 -25
-9 -25 -10 -8 -40 9 -16 22 -30 27 -30 6 0 46 12 89 26 71 23 80 24 94 10 9
-9 14 -17 11 -19 -8 -8 -230 -79 -234 -76 -8 8 -86 137 -110 182 l-26 48 33
11 c18 7 67 24 108 38 60 22 78 24 89 14 7 -6 11 -17 7 -22z m-2622 -28 c14
-5 13 -11 -4 -45 -11 -21 -20 -42 -20 -47 0 -8 101 -42 123 -42 4 0 16 18 27
40 20 40 41 49 69 31 11 -7 6 -22 -24 -77 -74 -135 -94 -162 -116 -157 -31 8
-31 19 -5 72 l26 50 -53 16 c-28 9 -57 18 -64 20 -7 2 -25 -18 -40 -45 -27
-49 -43 -57 -77 -44 -14 5 -10 18 25 83 84 152 92 161 133 145z m2251 -179
c31 -52 59 -95 63 -95 4 0 41 11 82 24 68 22 76 23 81 8 4 -10 4 -20 0 -24 -6
-7 -187 -68 -201 -68 -4 0 -28 35 -52 78 -25 42 -56 94 -68 114 l-22 38 24 9
c12 6 26 10 30 10 4 1 33 -42 63 -94z m-1829 43 c26 -12 26 -14 20 -83 -19
-217 -15 -203 -61 -185 -20 8 -25 15 -21 35 5 28 -4 35 -77 55 -42 11 -50 11
-65 -4 -20 -17 -59 -21 -79 -8 -14 9 219 202 243 202 7 0 25 -5 40 -12z m135
-44 c3 -2 12 -25 19 -51 7 -27 17 -52 22 -58 5 -5 27 9 56 38 46 45 50 47 86
40 l38 -8 -81 -65 c-68 -54 -83 -73 -97 -112 -14 -42 -19 -48 -43 -48 -39 0
-41 6 -24 56 17 49 17 48 -21 149 -14 38 -26 71 -26 73 0 4 61 -8 71 -14z
m1444 -79 c56 -106 51 -103 141 -77 62 19 79 20 85 10 5 -7 9 -16 9 -19 0 -4
-47 -22 -105 -41 -123 -41 -107 -49 -188 97 l-56 100 27 12 c33 14 37 11 87
-82z m-180 25 c53 -26 86 -71 93 -126 4 -39 1 -47 -28 -74 -100 -93 -281 -47
-306 79 -10 50 12 87 69 116 62 30 116 32 172 5z m-900 -25 c93 -8 105 -13
105 -37 0 -17 -5 -19 -32 -15 -18 4 -61 9 -94 13 l-61 6 -5 -30 -4 -31 65 -6
c36 -4 74 -9 84 -12 21 -6 18 -38 -3 -37 -8 0 -47 4 -86 8 l-72 7 -5 -33 c-2
-18 -3 -34 -2 -36 1 -2 42 -7 90 -12 48 -5 90 -11 92 -14 3 -3 3 -13 -1 -22
-5 -13 -15 -15 -44 -11 -20 3 -76 9 -124 13 -63 5 -88 11 -88 20 0 13 38 207
46 231 2 8 15 11 36 9 18 -3 65 -8 103 -11z m573 -35 c18 -11 31 -24 28 -29
-10 -16 -59 -19 -73 -5 -19 18 -83 18 -110 -1 -65 -45 -10 -165 76 -165 43 0
81 23 81 49 0 13 9 20 30 23 39 6 44 -3 27 -45 -16 -36 -56 -60 -119 -72 -74
-14 -156 34 -180 104 -14 43 -13 68 4 100 30 57 170 81 236 41z"/>
<path d="M6772 1012 c-14 -40 1 -62 41 -62 38 0 57 15 57 45 0 30 -19 45 -56
45 -26 0 -34 -5 -42 -28z"/>
<path d="M1528 989 c-21 -12 -24 -59 -6 -77 15 -15 61 -15 76 0 19 19 15 66
-7 78 -24 12 -41 12 -63 -1z"/>
<path d="M2311 802 c-24 -23 -42 -44 -40 -46 2 -1 19 -8 37 -16 44 -17 54 -5
50 56 l-3 49 -44 -43z"/>
<path d="M3180 520 c-24 -22 -42 -41 -40 -43 10 -9 73 -27 79 -23 6 4 14 107
9 106 -2 -1 -23 -18 -48 -40z"/>
<path d="M4557 480 c-43 -13 -57 -29 -57 -67 0 -69 71 -123 140 -108 41 9 60
30 60 67 0 74 -72 129 -143 108z"/>
<path d="M1480 548 c-70 -10 -231 -47 -249 -57 -20 -12 35 -59 77 -67 18 -4
84 -1 148 7 l115 12 -7 31 c-3 17 -11 42 -18 57 -11 24 -13 25 -66 17z"/>
<path d="M6610 509 c-6 -22 -13 -46 -16 -53 -7 -19 224 -43 275 -28 38 12 79
47 68 59 -13 13 -224 62 -269 63 -47 0 -47 0 -58 -41z"/>
</g>
</svg>
