{
	"asset":{
		"generator":"Khronos glTF Blender I/O v3.5.30",
		"version":"2.0"
	},
	"scene":0,
	"scenes":[
		{
			"name":"Scene",
			"nodes":[
				14
			]
		}
	],
	"nodes":[
		{
			"mesh":0,
			"name":"pCube2_surfaceShader12_0"
		},
		{
			"mesh":1,
			"name":"pCube2_surfaceShader15_0"
		},
		{
			"mesh":2,
			"name":"pCube2_surfaceShader16_0"
		},
		{
			"mesh":3,
			"name":"pCube2_surfaceShader17_0"
		},
		{
			"mesh":4,
			"name":"pCube2_surfaceShader19_0"
		},
		{
			"mesh":5,
			"name":"pCube2_surfaceShader20_0"
		},
		{
			"mesh":6,
			"name":"pCube2_surfaceShader2_0"
		},
		{
			"mesh":7,
			"name":"pCube2_surfaceShader5_0"
		},
		{
			"mesh":8,
			"name":"pCube2_surfaceShader6_0"
		},
		{
			"mesh":9,
			"name":"pCube2_surfaceShader8_0"
		},
		{
			"mesh":10,
			"name":"pCube2_surfaceShader9_0"
		},
		{
			"children":[
				0,
				1,
				2,
				3,
				4,
				5,
				6,
				7,
				8,
				9,
				10
			],
			"name":"pCube2"
		},
		{
			"children":[
				11
			],
			"name":"RootNode"
		},
		{
			"children":[
				12
			],
			"name":"ab958d344d674adabceac5e77404c310.fbx",
			"rotation":[
				0.70710688829422,
				0,
				0,
				0.7071066498756409
			]
		},
		{
			"children":[
				13
			],
			"name":"Sketchfab_model",
			"rotation":[
				-0.70710688829422,
				0,
				0,
				0.7071066498756409
			],
			"scale":[
				0.07148057222366333,
				0.07148057967424393,
				0.07148057967424393
			]
		}
	],
	"materials":[
		{
			"doubleSided":true,
			"name":"surfaceShader12",
			"pbrMetallicRoughness":{
				"baseColorTexture":{
					"index":0
				},
				"metallicFactor":0,
				"roughnessFactor":0.6000000238418579
			}
		},
		{
			"doubleSided":true,
			"name":"surfaceShader15",
			"pbrMetallicRoughness":{
				"baseColorTexture":{
					"index":1
				},
				"metallicFactor":0,
				"roughnessFactor":0.6000000238418579
			}
		},
		{
			"doubleSided":true,
			"name":"surfaceShader16",
			"pbrMetallicRoughness":{
				"baseColorTexture":{
					"index":2
				},
				"metallicFactor":0,
				"roughnessFactor":0.6000000238418579
			}
		},
		{
			"doubleSided":true,
			"name":"surfaceShader17",
			"pbrMetallicRoughness":{
				"baseColorTexture":{
					"index":3
				},
				"metallicFactor":0,
				"roughnessFactor":0.6000000238418579
			}
		},
		{
			"doubleSided":true,
			"name":"surfaceShader19",
			"pbrMetallicRoughness":{
				"baseColorTexture":{
					"index":4
				},
				"metallicFactor":0,
				"roughnessFactor":0.6000000238418579
			}
		},
		{
			"doubleSided":true,
			"name":"surfaceShader20",
			"pbrMetallicRoughness":{
				"baseColorTexture":{
					"index":5
				},
				"metallicFactor":0,
				"roughnessFactor":0.6000000238418579
			}
		},
		{
			"doubleSided":true,
			"name":"surfaceShader2",
			"pbrMetallicRoughness":{
				"baseColorTexture":{
					"index":6
				},
				"metallicFactor":0,
				"roughnessFactor":0.6000000238418579
			}
		},
		{
			"doubleSided":true,
			"name":"surfaceShader5",
			"pbrMetallicRoughness":{
				"baseColorTexture":{
					"index":7
				},
				"metallicFactor":0,
				"roughnessFactor":0.6000000238418579
			}
		},
		{
			"doubleSided":true,
			"name":"surfaceShader6",
			"pbrMetallicRoughness":{
				"baseColorTexture":{
					"index":8
				},
				"metallicFactor":0,
				"roughnessFactor":0.6000000238418579
			}
		},
		{
			"doubleSided":true,
			"name":"surfaceShader8",
			"pbrMetallicRoughness":{
				"baseColorTexture":{
					"index":9
				},
				"metallicFactor":0,
				"roughnessFactor":0.5
			}
		},
		{
			"doubleSided":true,
			"name":"surfaceShader9",
			"pbrMetallicRoughness":{
				"baseColorTexture":{
					"index":10
				},
				"metallicFactor":0,
				"roughnessFactor":0.6000000238418579
			}
		}
	],
	"meshes":[
		{
			"name":"pCube2_surfaceShader12_0",
			"primitives":[
				{
					"attributes":{
						"POSITION":0,
						"TEXCOORD_0":1,
						"NORMAL":2
					},
					"indices":3,
					"material":0
				}
			]
		},
		{
			"name":"pCube2_surfaceShader15_0",
			"primitives":[
				{
					"attributes":{
						"POSITION":4,
						"TEXCOORD_0":5,
						"NORMAL":6
					},
					"indices":7,
					"material":1
				}
			]
		},
		{
			"name":"pCube2_surfaceShader16_0",
			"primitives":[
				{
					"attributes":{
						"POSITION":8,
						"TEXCOORD_0":9,
						"NORMAL":10
					},
					"indices":11,
					"material":2
				}
			]
		},
		{
			"name":"pCube2_surfaceShader17_0",
			"primitives":[
				{
					"attributes":{
						"POSITION":12,
						"TEXCOORD_0":13,
						"NORMAL":14
					},
					"indices":15,
					"material":3
				}
			]
		},
		{
			"name":"pCube2_surfaceShader19_0",
			"primitives":[
				{
					"attributes":{
						"POSITION":16,
						"TEXCOORD_0":17,
						"NORMAL":18
					},
					"indices":19,
					"material":4
				}
			]
		},
		{
			"name":"pCube2_surfaceShader20_0",
			"primitives":[
				{
					"attributes":{
						"POSITION":20,
						"TEXCOORD_0":21,
						"NORMAL":22
					},
					"indices":23,
					"material":5
				}
			]
		},
		{
			"name":"pCube2_surfaceShader2_0",
			"primitives":[
				{
					"attributes":{
						"POSITION":24,
						"TEXCOORD_0":25,
						"NORMAL":26
					},
					"indices":27,
					"material":6
				}
			]
		},
		{
			"name":"pCube2_surfaceShader5_0",
			"primitives":[
				{
					"attributes":{
						"POSITION":28,
						"TEXCOORD_0":29,
						"NORMAL":30
					},
					"indices":31,
					"material":7
				}
			]
		},
		{
			"name":"pCube2_surfaceShader6_0",
			"primitives":[
				{
					"attributes":{
						"POSITION":32,
						"TEXCOORD_0":33,
						"NORMAL":34
					},
					"indices":35,
					"material":8
				}
			]
		},
		{
			"name":"pCube2_surfaceShader8_0",
			"primitives":[
				{
					"attributes":{
						"POSITION":36,
						"TEXCOORD_0":37,
						"NORMAL":38
					},
					"indices":39,
					"material":9
				}
			]
		},
		{
			"name":"pCube2_surfaceShader9_0",
			"primitives":[
				{
					"attributes":{
						"POSITION":40,
						"TEXCOORD_0":41,
						"NORMAL":42
					},
					"indices":43,
					"material":10
				}
			]
		}
	],
	"textures":[
		{
			"sampler":0,
			"source":0
		},
		{
			"sampler":0,
			"source":1
		},
		{
			"sampler":0,
			"source":2
		},
		{
			"sampler":0,
			"source":3
		},
		{
			"sampler":0,
			"source":4
		},
		{
			"sampler":0,
			"source":5
		},
		{
			"sampler":0,
			"source":6
		},
		{
			"sampler":0,
			"source":7
		},
		{
			"sampler":0,
			"source":8
		},
		{
			"sampler":0,
			"source":9
		},
		{
			"sampler":0,
			"source":10
		}
	],
	"images":[
		{
			"bufferView":4,
			"mimeType":"image/png",
			"name":"Image_0"
		},
		{
			"bufferView":9,
			"mimeType":"image/png",
			"name":"Image_8"
		},
		{
			"bufferView":14,
			"mimeType":"image/png",
			"name":"Image_1"
		},
		{
			"bufferView":19,
			"mimeType":"image/png",
			"name":"Image_2"
		},
		{
			"bufferView":24,
			"mimeType":"image/png",
			"name":"Image_3"
		},
		{
			"bufferView":29,
			"mimeType":"image/png",
			"name":"Image_10"
		},
		{
			"bufferView":34,
			"mimeType":"image/png",
			"name":"Image_4"
		},
		{
			"bufferView":39,
			"mimeType":"image/png",
			"name":"Image_5"
		},
		{
			"bufferView":44,
			"mimeType":"image/png",
			"name":"Image_6"
		},
		{
			"bufferView":49,
			"mimeType":"image/png",
			"name":"Image_7"
		},
		{
			"bufferView":54,
			"mimeType":"image/png",
			"name":"Image_9"
		}
	],
	"accessors":[
		{
			"bufferView":0,
			"componentType":5126,
			"count":161,
			"max":[
				4.492422103881836,
				12.64504337310791,
				5.4413042068481445
			],
			"min":[
				-4.957423210144043,
				6.9579267501831055,
				-3.799703598022461
			],
			"type":"VEC3"
		},
		{
			"bufferView":1,
			"componentType":5126,
			"count":161,
			"type":"VEC2"
		},
		{
			"bufferView":2,
			"componentType":5126,
			"count":161,
			"type":"VEC3"
		},
		{
			"bufferView":3,
			"componentType":5123,
			"count":336,
			"type":"SCALAR"
		},
		{
			"bufferView":5,
			"componentType":5126,
			"count":198,
			"max":[
				5.617368698120117,
				13.123222351074219,
				7.526224136352539
			],
			"min":[
				-4.957423210144043,
				8.122617721557617,
				-3.604036808013916
			],
			"type":"VEC3"
		},
		{
			"bufferView":6,
			"componentType":5126,
			"count":198,
			"type":"VEC2"
		},
		{
			"bufferView":7,
			"componentType":5126,
			"count":198,
			"type":"VEC3"
		},
		{
			"bufferView":8,
			"componentType":5123,
			"count":324,
			"type":"SCALAR"
		},
		{
			"bufferView":10,
			"componentType":5126,
			"count":76,
			"max":[
				2.549196243286133,
				7.710948944091797,
				2.5580623149871826
			],
			"min":[
				-2.7406232357025146,
				3.993803024291992,
				-2.424867868423462
			],
			"type":"VEC3"
		},
		{
			"bufferView":11,
			"componentType":5126,
			"count":76,
			"type":"VEC2"
		},
		{
			"bufferView":12,
			"componentType":5126,
			"count":76,
			"type":"VEC3"
		},
		{
			"bufferView":13,
			"componentType":5123,
			"count":132,
			"type":"SCALAR"
		},
		{
			"bufferView":15,
			"componentType":5126,
			"count":32,
			"max":[
				2.061016798019409,
				5.697237968444824,
				3.054262161254883
			],
			"min":[
				-2.4262428283691406,
				2.991666793823242,
				-2.7267184257507324
			],
			"type":"VEC3"
		},
		{
			"bufferView":16,
			"componentType":5126,
			"count":32,
			"type":"VEC2"
		},
		{
			"bufferView":17,
			"componentType":5126,
			"count":32,
			"type":"VEC3"
		},
		{
			"bufferView":18,
			"componentType":5123,
			"count":48,
			"type":"SCALAR"
		},
		{
			"bufferView":20,
			"componentType":5126,
			"count":117,
			"max":[
				3.024245500564575,
				4.6819610595703125,
				-1.6197466850280762
			],
			"min":[
				-0.22732418775558472,
				0.13986463844776154,
				-5.399110317230225
			],
			"type":"VEC3"
		},
		{
			"bufferView":21,
			"componentType":5126,
			"count":117,
			"type":"VEC2"
		},
		{
			"bufferView":22,
			"componentType":5126,
			"count":117,
			"type":"VEC3"
		},
		{
			"bufferView":23,
			"componentType":5123,
			"count":210,
			"type":"SCALAR"
		},
		{
			"bufferView":25,
			"componentType":5126,
			"count":121,
			"max":[
				-0.9836218357086182,
				4.551877498626709,
				6.156185150146484
			],
			"min":[
				-3.571284294128418,
				0.8130913376808167,
				1.7178915739059448
			],
			"type":"VEC3"
		},
		{
			"bufferView":26,
			"componentType":5126,
			"count":121,
			"type":"VEC2"
		},
		{
			"bufferView":27,
			"componentType":5126,
			"count":121,
			"type":"VEC3"
		},
		{
			"bufferView":28,
			"componentType":5123,
			"count":210,
			"type":"SCALAR"
		},
		{
			"bufferView":30,
			"componentType":5126,
			"count":149,
			"max":[
				3.3266143798828125,
				18.31066131591797,
				5.681731224060059
			],
			"min":[
				-3.6403603553771973,
				11.904380798339844,
				-0.7324767112731934
			],
			"type":"VEC3"
		},
		{
			"bufferView":31,
			"componentType":5126,
			"count":149,
			"type":"VEC2"
		},
		{
			"bufferView":32,
			"componentType":5126,
			"count":149,
			"type":"VEC3"
		},
		{
			"bufferView":33,
			"componentType":5123,
			"count":375,
			"type":"SCALAR"
		},
		{
			"bufferView":35,
			"componentType":5126,
			"count":149,
			"max":[
				2.8802363872528076,
				20.489641189575195,
				5.522531509399414
			],
			"min":[
				-6.155279636383057,
				11.892208099365234,
				-3.8033645153045654
			],
			"type":"VEC3"
		},
		{
			"bufferView":36,
			"componentType":5126,
			"count":149,
			"type":"VEC2"
		},
		{
			"bufferView":37,
			"componentType":5126,
			"count":149,
			"type":"VEC3"
		},
		{
			"bufferView":38,
			"componentType":5123,
			"count":438,
			"type":"SCALAR"
		},
		{
			"bufferView":40,
			"componentType":5126,
			"count":132,
			"max":[
				4.078829765319824,
				19.334396362304688,
				6.262070178985596
			],
			"min":[
				-3.087143659591675,
				13.559820175170898,
				0.1496310532093048
			],
			"type":"VEC3"
		},
		{
			"bufferView":41,
			"componentType":5126,
			"count":132,
			"type":"VEC2"
		},
		{
			"bufferView":42,
			"componentType":5126,
			"count":132,
			"type":"VEC3"
		},
		{
			"bufferView":43,
			"componentType":5123,
			"count":213,
			"type":"SCALAR"
		},
		{
			"bufferView":45,
			"componentType":5126,
			"count":100,
			"max":[
				-2.470783233642578,
				12.763506889343262,
				-1.2303931713104248
			],
			"min":[
				-5.273102760314941,
				10.02503490447998,
				-4.017673492431641
			],
			"type":"VEC3"
		},
		{
			"bufferView":46,
			"componentType":5126,
			"count":100,
			"type":"VEC2"
		},
		{
			"bufferView":47,
			"componentType":5126,
			"count":100,
			"type":"VEC3"
		},
		{
			"bufferView":48,
			"componentType":5123,
			"count":126,
			"type":"SCALAR"
		},
		{
			"bufferView":50,
			"componentType":5126,
			"count":124,
			"max":[
				1.9944493770599365,
				13.444973945617676,
				3.214914083480835
			],
			"min":[
				-2.8432457447052,
				8.95174503326416,
				-1.189713478088379
			],
			"type":"VEC3"
		},
		{
			"bufferView":51,
			"componentType":5126,
			"count":124,
			"type":"VEC2"
		},
		{
			"bufferView":52,
			"componentType":5126,
			"count":124,
			"type":"VEC3"
		},
		{
			"bufferView":53,
			"componentType":5123,
			"count":246,
			"type":"SCALAR"
		}
	],
	"bufferViews":[
		{
			"buffer":0,
			"byteLength":1932,
			"byteOffset":0,
			"target":34962
		},
		{
			"buffer":0,
			"byteLength":1288,
			"byteOffset":1932,
			"target":34962
		},
		{
			"buffer":0,
			"byteLength":1932,
			"byteOffset":3220,
			"target":34962
		},
		{
			"buffer":0,
			"byteLength":672,
			"byteOffset":5152,
			"target":34963
		},
		{
			"buffer":0,
			"byteLength":15069,
			"byteOffset":5824
		},
		{
			"buffer":0,
			"byteLength":2376,
			"byteOffset":20896,
			"target":34962
		},
		{
			"buffer":0,
			"byteLength":1584,
			"byteOffset":23272,
			"target":34962
		},
		{
			"buffer":0,
			"byteLength":2376,
			"byteOffset":24856,
			"target":34962
		},
		{
			"buffer":0,
			"byteLength":648,
			"byteOffset":27232,
			"target":34963
		},
		{
			"buffer":0,
			"byteLength":12202,
			"byteOffset":27880
		},
		{
			"buffer":0,
			"byteLength":912,
			"byteOffset":40084,
			"target":34962
		},
		{
			"buffer":0,
			"byteLength":608,
			"byteOffset":40996,
			"target":34962
		},
		{
			"buffer":0,
			"byteLength":912,
			"byteOffset":41604,
			"target":34962
		},
		{
			"buffer":0,
			"byteLength":264,
			"byteOffset":42516,
			"target":34963
		},
		{
			"buffer":0,
			"byteLength":20972,
			"byteOffset":42780
		},
		{
			"buffer":0,
			"byteLength":384,
			"byteOffset":63752,
			"target":34962
		},
		{
			"buffer":0,
			"byteLength":256,
			"byteOffset":64136,
			"target":34962
		},
		{
			"buffer":0,
			"byteLength":384,
			"byteOffset":64392,
			"target":34962
		},
		{
			"buffer":0,
			"byteLength":96,
			"byteOffset":64776,
			"target":34963
		},
		{
			"buffer":0,
			"byteLength":6166,
			"byteOffset":64872
		},
		{
			"buffer":0,
			"byteLength":1404,
			"byteOffset":71040,
			"target":34962
		},
		{
			"buffer":0,
			"byteLength":936,
			"byteOffset":72444,
			"target":34962
		},
		{
			"buffer":0,
			"byteLength":1404,
			"byteOffset":73380,
			"target":34962
		},
		{
			"buffer":0,
			"byteLength":420,
			"byteOffset":74784,
			"target":34963
		},
		{
			"buffer":0,
			"byteLength":19778,
			"byteOffset":75204
		},
		{
			"buffer":0,
			"byteLength":1452,
			"byteOffset":94984,
			"target":34962
		},
		{
			"buffer":0,
			"byteLength":968,
			"byteOffset":96436,
			"target":34962
		},
		{
			"buffer":0,
			"byteLength":1452,
			"byteOffset":97404,
			"target":34962
		},
		{
			"buffer":0,
			"byteLength":420,
			"byteOffset":98856,
			"target":34963
		},
		{
			"buffer":0,
			"byteLength":17582,
			"byteOffset":99276
		},
		{
			"buffer":0,
			"byteLength":1788,
			"byteOffset":116860,
			"target":34962
		},
		{
			"buffer":0,
			"byteLength":1192,
			"byteOffset":118648,
			"target":34962
		},
		{
			"buffer":0,
			"byteLength":1788,
			"byteOffset":119840,
			"target":34962
		},
		{
			"buffer":0,
			"byteLength":750,
			"byteOffset":121628,
			"target":34963
		},
		{
			"buffer":0,
			"byteLength":13574,
			"byteOffset":122380
		},
		{
			"buffer":0,
			"byteLength":1788,
			"byteOffset":135956,
			"target":34962
		},
		{
			"buffer":0,
			"byteLength":1192,
			"byteOffset":137744,
			"target":34962
		},
		{
			"buffer":0,
			"byteLength":1788,
			"byteOffset":138936,
			"target":34962
		},
		{
			"buffer":0,
			"byteLength":876,
			"byteOffset":140724,
			"target":34963
		},
		{
			"buffer":0,
			"byteLength":11721,
			"byteOffset":141600
		},
		{
			"buffer":0,
			"byteLength":1584,
			"byteOffset":153324,
			"target":34962
		},
		{
			"buffer":0,
			"byteLength":1056,
			"byteOffset":154908,
			"target":34962
		},
		{
			"buffer":0,
			"byteLength":1584,
			"byteOffset":155964,
			"target":34962
		},
		{
			"buffer":0,
			"byteLength":426,
			"byteOffset":157548,
			"target":34963
		},
		{
			"buffer":0,
			"byteLength":19000,
			"byteOffset":157976
		},
		{
			"buffer":0,
			"byteLength":1200,
			"byteOffset":176976,
			"target":34962
		},
		{
			"buffer":0,
			"byteLength":800,
			"byteOffset":178176,
			"target":34962
		},
		{
			"buffer":0,
			"byteLength":1200,
			"byteOffset":178976,
			"target":34962
		},
		{
			"buffer":0,
			"byteLength":252,
			"byteOffset":180176,
			"target":34963
		},
		{
			"buffer":0,
			"byteLength":16744,
			"byteOffset":180428
		},
		{
			"buffer":0,
			"byteLength":1488,
			"byteOffset":197172,
			"target":34962
		},
		{
			"buffer":0,
			"byteLength":992,
			"byteOffset":198660,
			"target":34962
		},
		{
			"buffer":0,
			"byteLength":1488,
			"byteOffset":199652,
			"target":34962
		},
		{
			"buffer":0,
			"byteLength":492,
			"byteOffset":201140,
			"target":34963
		},
		{
			"buffer":0,
			"byteLength":14685,
			"byteOffset":201632
		}
	],
	"samplers":[
		{
			"magFilter":9729,
			"minFilter":9987
		}
	],
	"buffers":[
		{
			"byteLength":216320,
			"uri":"data:application/octet-stream;base64,"
		}
	]
}
