{
	"asset":{
		"generator":"Khronos glTF Blender I/O v3.5.30",
		"version":"2.0"
	},
	"scene":0,
	"scenes":[
		{
			"name":"Scene",
			"nodes":[
				13
			]
		}
	],
	"nodes":[
		{
			"mesh":0,
			"name":"Object_6"
		},
		{
			"children":[
				0
			],
			"name":"Object_2_2"
		},
		{
			"name":"Object_3_3"
		},
		{
			"mesh":1,
			"name":"Object_10"
		},
		{
			"children":[
				3
			],
			"name":"Object_4_4"
		},
		{
			"mesh":2,
			"name":"Object_12"
		},
		{
			"children":[
				5
			],
			"name":"Object_5_5"
		},
		{
			"mesh":3,
			"name":"Object_14"
		},
		{
			"children":[
				7
			],
			"name":"Object_6_6"
		},
		{
			"children":[
				1,
				2,
				4,
				6,
				8
			],
			"name":"Engine_Thomas.obj.cleaner.materialmerger.gles_1"
		},
		{
			"children":[
				9
			],
			"name":"Sketchfab_model_0",
			"rotation":[
				-0.70710688829422,
				0,
				0,
				0.7071066498756409
			]
		},
		{
			"children":[
				10
			],
			"name":"GLTF_SceneRootNode",
			"rotation":[
				0.70710688829422,
				0,
				0,
				0.7071066498756409
			]
		},
		{
			"children":[
				11
			],
			"name":"root"
		},
		{
			"children":[
				12
			],
			"name":"Sketchfab_model",
			"rotation":[
				0,
				-0.7071068286895752,
				-0.7071068286895752,
				5.338509012631221e-08
			],
			"scale":[
				0.21307741105556488,
				0.2130773961544037,
				0.2130773961544037
			]
		}
	],
	"materials":[
		{
			"doubleSided":true,
			"name":"Page_03",
			"pbrMetallicRoughness":{
				"baseColorTexture":{
					"index":0
				},
				"metallicFactor":0,
				"roughnessFactor":0.8828240036964417
			}
		},
		{
			"doubleSided":true,
			"name":"Eyes.001",
			"pbrMetallicRoughness":{
				"baseColorTexture":{
					"index":1
				},
				"metallicFactor":0,
				"roughnessFactor":0.8828240036964417
			}
		},
		{
			"doubleSided":true,
			"name":"Page_01",
			"pbrMetallicRoughness":{
				"baseColorTexture":{
					"index":2
				},
				"metallicFactor":0,
				"roughnessFactor":0.8828240036964417
			}
		},
		{
			"doubleSided":true,
			"name":"Page_02",
			"pbrMetallicRoughness":{
				"baseColorTexture":{
					"index":3
				},
				"metallicFactor":0,
				"roughnessFactor":0.8828240036964417
			}
		}
	],
	"meshes":[
		{
			"name":"Object_0.001",
			"primitives":[
				{
					"attributes":{
						"POSITION":0,
						"TEXCOORD_0":1,
						"NORMAL":2
					},
					"indices":3,
					"material":0
				}
			]
		},
		{
			"name":"Object_2.001",
			"primitives":[
				{
					"attributes":{
						"POSITION":4,
						"TEXCOORD_0":5,
						"NORMAL":6
					},
					"indices":7,
					"material":1
				}
			]
		},
		{
			"name":"Object_3.001",
			"primitives":[
				{
					"attributes":{
						"POSITION":8,
						"TEXCOORD_0":9,
						"NORMAL":10
					},
					"indices":11,
					"material":2
				}
			]
		},
		{
			"name":"Object_4.001",
			"primitives":[
				{
					"attributes":{
						"POSITION":12,
						"TEXCOORD_0":13,
						"NORMAL":14
					},
					"indices":15,
					"material":3
				}
			]
		}
	],
	"textures":[
		{
			"sampler":0,
			"source":0
		},
		{
			"sampler":0,
			"source":1
		},
		{
			"sampler":0,
			"source":2
		},
		{
			"sampler":0,
			"source":3
		}
	],
	"images":[
		{
			"bufferView":4,
			"mimeType":"image/png",
			"name":"Image_0"
		},
		{
			"bufferView":9,
			"mimeType":"image/png",
			"name":"Image_1"
		},
		{
			"bufferView":14,
			"mimeType":"image/png",
			"name":"Image_2"
		},
		{
			"bufferView":19,
			"mimeType":"image/png",
			"name":"Image_3"
		}
	],
	"accessors":[
		{
			"bufferView":0,
			"componentType":5126,
			"count":8,
			"max":[
				1.0721299648284912,
				0.14070500433444977,
				2.948676109313965
			],
			"min":[
				-1.0728299617767334,
				-0.38179799914360046,
				2.0752949714660645
			],
			"type":"VEC3"
		},
		{
			"bufferView":1,
			"componentType":5126,
			"count":8,
			"type":"VEC2"
		},
		{
			"bufferView":2,
			"componentType":5126,
			"count":8,
			"type":"VEC3"
		},
		{
			"bufferView":3,
			"componentType":5123,
			"count":12,
			"type":"SCALAR"
		},
		{
			"bufferView":5,
			"componentType":5126,
			"count":130,
			"max":[
				0.5059999823570251,
				3.0962600708007812,
				3.1887600421905518
			],
			"min":[
				-0.5059999823570251,
				2.9387600421905518,
				2.7687599658966064
			],
			"type":"VEC3"
		},
		{
			"bufferView":6,
			"componentType":5126,
			"count":130,
			"type":"VEC2"
		},
		{
			"bufferView":7,
			"componentType":5126,
			"count":130,
			"type":"VEC3"
		},
		{
			"bufferView":8,
			"componentType":5123,
			"count":672,
			"type":"SCALAR"
		},
		{
			"bufferView":10,
			"componentType":5126,
			"count":3566,
			"max":[
				1.241070032119751,
				3.9555599689483643,
				4.262209892272949
			],
			"min":[
				-1.241070032119751,
				-3.9555599689483643,
				0.5161899924278259
			],
			"type":"VEC3"
		},
		{
			"bufferView":11,
			"componentType":5126,
			"count":3566,
			"type":"VEC2"
		},
		{
			"bufferView":12,
			"componentType":5126,
			"count":3566,
			"type":"VEC3"
		},
		{
			"bufferView":13,
			"componentType":5123,
			"count":9225,
			"type":"SCALAR"
		},
		{
			"bufferView":15,
			"componentType":5126,
			"count":1873,
			"max":[
				1.281730055809021,
				3.50219988822937,
				4.223939895629883
			],
			"min":[
				-1.264359951019287,
				-3.502739906311035,
				0.3459540009498596
			],
			"type":"VEC3"
		},
		{
			"bufferView":16,
			"componentType":5126,
			"count":1873,
			"type":"VEC2"
		},
		{
			"bufferView":17,
			"componentType":5126,
			"count":1873,
			"type":"VEC3"
		},
		{
			"bufferView":18,
			"componentType":5123,
			"count":5796,
			"type":"SCALAR"
		}
	],
	"bufferViews":[
		{
			"buffer":0,
			"byteLength":96,
			"byteOffset":0,
			"target":34962
		},
		{
			"buffer":0,
			"byteLength":64,
			"byteOffset":96,
			"target":34962
		},
		{
			"buffer":0,
			"byteLength":96,
			"byteOffset":160,
			"target":34962
		},
		{
			"buffer":0,
			"byteLength":24,
			"byteOffset":256,
			"target":34963
		},
		{
			"buffer":0,
			"byteLength":47985,
			"byteOffset":280
		},
		{
			"buffer":0,
			"byteLength":1560,
			"byteOffset":48268,
			"target":34962
		},
		{
			"buffer":0,
			"byteLength":1040,
			"byteOffset":49828,
			"target":34962
		},
		{
			"buffer":0,
			"byteLength":1560,
			"byteOffset":50868,
			"target":34962
		},
		{
			"buffer":0,
			"byteLength":1344,
			"byteOffset":52428,
			"target":34963
		},
		{
			"buffer":0,
			"byteLength":9440,
			"byteOffset":53772
		},
		{
			"buffer":0,
			"byteLength":42792,
			"byteOffset":63212,
			"target":34962
		},
		{
			"buffer":0,
			"byteLength":28528,
			"byteOffset":106004,
			"target":34962
		},
		{
			"buffer":0,
			"byteLength":42792,
			"byteOffset":134532,
			"target":34962
		},
		{
			"buffer":0,
			"byteLength":18450,
			"byteOffset":177324,
			"target":34963
		},
		{
			"buffer":0,
			"byteLength":13039,
			"byteOffset":195776
		},
		{
			"buffer":0,
			"byteLength":22476,
			"byteOffset":208816,
			"target":34962
		},
		{
			"buffer":0,
			"byteLength":14984,
			"byteOffset":231292,
			"target":34962
		},
		{
			"buffer":0,
			"byteLength":22476,
			"byteOffset":246276,
			"target":34962
		},
		{
			"buffer":0,
			"byteLength":11592,
			"byteOffset":268752,
			"target":34963
		},
		{
			"buffer":0,
			"byteLength":50937,
			"byteOffset":280344
		}
	],
	"samplers":[
		{
			"magFilter":9729,
			"minFilter":9987
		}
	],
	"buffers":[
		{
			"byteLength":331284,
			"uri":"data:application/octet-stream;base64,"
		}
	]
}
